<?xml version="1.0" encoding="utf-8"?>
<!-- Generator: Adobe Illustrator 27.7.0, SVG Export Plug-In . SVG Version: 6.00 Build 0)  -->
<svg version="1.1" id="Layer_1" xmlns="http://www.w3.org/2000/svg" xmlns:xlink="http://www.w3.org/1999/xlink" x="0px" y="0px"
	 viewBox="0 0 1000 1000" style="enable-background:new 0 0 1000 1000;" xml:space="preserve">
<style type="text/css">
	.st0{fill:#FF10F0;}
</style>
<g>
	<path class="st0" d="M413.8,896.8C401,879.7,389.3,862,379,843.1c-11.3-20.7-20.6-42.1-27.3-64.7c-3.3-11-6.1-22.1-7.6-33.5
		c-1.5-11.3-3.2-22.6-3.1-34.1c0.1-11.4,2.3-22.5,4.4-33.7c6-32.1,21.6-59.4,40.8-85.3c12.3-16.6,27.4-30.6,42.3-44.6
		c13.1-12.4,27.4-23.7,43.8-33.6c0.1,3.1,0.6,5.5,0.3,7.9c-0.8,5.7-2,11.3-2.9,17c-0.7,4.5-1.2,9-1.6,13.5
		c-0.6,6.1-0.8,12.1-1.6,18.2c-0.8,6-2.1,11.9-2.9,17.8c-0.7,5-1.2,10.1-1.7,15.1c-1,9.8-2,19.6-3.1,29.4c-0.9,8-1.9,16-3.1,24
		c-2,13.7-4.2,27.3-6.1,41c-0.3,1.8,0.3,3.7,1.3,5.6c7.7-22.4,12.3-45.5,18.6-68.1c6.2-22.5,11.4-45.3,18.4-67.9
		c1.7,7.7,3.6,15.4,4.9,23.2c2.4,14.6,6.9,28.6,11.5,42.6c5.8,18,13.7,35.1,22.9,51.4c6.2,10.9,13.1,21.6,21.9,30.8
		c2.3,2.4,4.4,4.9,6.1,7.7c0.9,1.5,1.3,3.9,0.9,5.7c-6.8,26.9-18.9,51.1-35.5,73.3c-7.3,9.8-15.7,18.7-23.3,28.2
		c-7.5,9.3-16.6,16.7-25.3,24.4c-16.5,14.7-34.3,27.9-53.4,39.1c-1.2,0.7-2.1,2-3.1,3C414.9,896.8,414.4,896.8,413.8,896.8z"/>
	<path class="st0" d="M664.8,638.1c-10.1-10.3-20.1-20.6-30.2-30.9c-18.3-18.8-36.6-37.6-54.9-56.4c-0.5-0.5-0.9-1.2-2.3-3
		c3.8,0.9,6.2,1.7,8.8,2.1c9.4,1.6,18.8,3.5,28.3,4.6c8.8,1,17.8,1.3,26.7,1.6c6.7,0.2,13.4,0.2,20.1,0c13.9-0.3,27.6-2.3,41.1-5.6
		c5.1-1.3,10.2-2.5,15.3-3.5c3.1-0.7,6.1,0.2,8.6,2.1c10.4,7.6,18.8,17.1,26.9,27c11.5,14.1,20.1,30,27.6,46.4
		c5.8,12.6,9.8,26.1,13.9,39.4c3,9.7,5.1,19.8,7.3,29.7c1,4.4,1.7,8.9,2,13.4c0.9,11.9,2.9,23.6,3.7,35.6c0.6,9.4,0.4,18.9,1.2,29.2
		c-5.6,0.6-11,0.9-16.4,1.8c-13.8,2.2-27.6,1.9-41.4,1.3c-9.8-0.4-19.7-0.7-29.4-2.8c-7.1-1.5-14.4-2.1-21.6-3.2
		c-13.9-2-27.3-5.6-40.5-10.2c-17.6-6.1-34.7-13.2-50.2-23.8c-11.5-7.9-22.9-16-32.1-26.6c-12.4-14.2-23.3-29.6-31.8-46.6
		c-10.3-20.4-17.4-41.8-22.9-63.8c-3-12.1-5.8-24.4-6.5-37c-0.5-8.5-2-17-3-25.5c-0.1-1,0.1-2,0.3-3.8c3,0.7,5.5,1.4,8.1,1.9
		c10.3,2,17.9,8.4,25.8,14.7c9.6,7.8,19.4,15.3,29.1,23c8.9,7.1,17.6,14.5,26.5,21.7c9.6,7.8,19.4,15.3,29,23.1
		c6.3,5.1,12.3,10.6,18.9,15.3c4.5,3.2,7.8,8.1,13.3,9.7c0.5,0.8,1.1,1.5,1.6,2.3c0.3-0.2,0.6-0.4,0.9-0.6
		C665.8,639.7,665.3,638.9,664.8,638.1z"/>
	<path class="st0" d="M530.1,504.4c6.9-6.8,14.6-11.9,22.7-16.4c20.3-11.1,40.9-21.7,61.3-32.7c17.8-9.6,35.3-19.5,53-29.2
		c10-5.5,20-10.9,29.8-16.9c-12,2.3-22.8,7.8-33.9,12.2c-11.1,4.4-22.3,8.5-33.4,12.9c-11.3,4.4-22.5,8.9-35.5,14.1
		c2.3-3.9,3.5-6.5,5.3-8.7c12.3-14.8,21.8-31.4,29.8-48.8c6.2-13.6,11.1-27.9,13.7-42.6c1.7-9.4,4.4-18.8,3.5-28.6
		c-0.5-4.8,1.4-7.4,6.2-9.5c11.6-5,23.6-8,35.7-11c5.8-1.5,12.2-0.6,18.1-1.9c11.2-2.5,22.5-1.5,33.7-1.2
		c10.1,0.2,20.2,1.5,30.3,2.6c14.5,1.6,28.7,4.7,42.9,8c17,4,33.5,9.5,49.7,16.1c3.2,1.3,6.3,2.8,10.1,4.4
		c-3.1,9.5-5.5,18.6-9.1,27.3c-6.3,15.2-12.9,30.3-20.3,45c-7.4,14.9-16.4,28.9-26.5,42.2c-5.1,6.7-10.7,12.9-16.1,19.3
		c-3.5,4.1-6.9,8.2-10.7,12c-4,4-8.1,7.8-12.6,11.2c-8.2,6.1-16.6,12.1-25.3,17.5c-13.9,8.6-28.8,14.8-44.6,18.9
		c-14.9,3.8-30.1,5.9-45.6,6.5c-7.3,0.3-14.8,1.8-22.1,1c-12-1.2-24.2-1.1-36.1-4.3c-7-1.9-14.6-1.5-21.5-3.5
		c-16.7-4.8-33.8-8.1-49.8-15.3C532.1,504.6,531.3,504.6,530.1,504.4z"/>
	<path class="st0" d="M516.1,475.7c0-16.5-0.9-32.3,0.4-47.9c0.7-8.9,1.1-17.8,1.1-26.8c0-5.6-0.9-11.1-1.5-16.7
		c-0.5-5.3,1.3-10.8-1.5-15.9c-0.2-0.4,0-1-0.1-1.5c-0.5-12.8-0.9-25.6-1.6-38.3c-0.6-12.3-1.4-24.5-2.2-38.4
		c-1.2,2.7-2.3,4.1-2.3,5.5c-0.6,13.3-0.5,26.7-1.9,39.9c-1.1,10-0.2,20-1.6,29.8c-1.1,7.4-0.8,14.8-1.3,22.1
		c-0.6,8.5-1.5,17-2.4,27.3c-2.7-6.1-4.9-10.7-6.9-15.4c-9.3-21.8-20.2-42.6-34.6-61.5c-7-9.3-13.8-18.8-21.6-27.4
		c-6.5-7.1-14.3-13-21.6-19.3c-4.6-4-9.3-7.8-14.5-12.1c4-13.6,7.4-27.2,11.8-40.4c8.4-25.2,21.4-48,37.3-69.2
		c8.5-11.3,16.7-22.9,26.1-33.5c10-11.4,21.2-21.7,32.2-32.8c2.5,2.2,4.7,4,6.7,5.9c7.3,7.3,14.7,14.5,21.8,22
		c9,9.4,17.4,19.2,25.4,29.5c7.9,10.2,15.2,20.7,21.9,31.7c7.5,12.1,14.2,24.8,19,38.2c4.4,12.2,7.7,24.7,10.8,37.3
		c1.4,5.3,1.2,11.1,1.7,16.6c0.5,5.3,1.6,10.6,1.4,15.9c-0.3,9.1-1.6,18.1-2.7,27.1c-1.1,9.6-3.2,18.8-6.2,27.8
		c-7.1,21.4-16.8,41.6-30.2,60c-9,12.4-18.6,24.3-29.4,34.9c-9.2,9-19.7,16.7-29.7,24.9C519.3,475.7,518,475.4,516.1,475.7z"/>
	<path class="st0" d="M394.6,442.5c-9.3-0.1-18.3-0.5-27.3-2.5c-1.7-0.4-3.6-0.1-5.4-0.1c-10.3,0-20.6-0.1-31-0.1
		c-12.7,0.1-25,2.8-37.4,5.2c-11.5,2.2-22.6,6.1-33.5,10.5c-6.7,2.7-13.2,5.9-20.6,9.2c-6.4-7.2-14.1-13.8-20.6-21.8
		c-8-9.8-15.7-19.7-22.4-30.4c-7.8-12.3-14.2-25.2-20.2-38.4c-7.3-16-13.2-32.5-18.1-49.4c-3.2-11-6.2-22.1-9.1-33.1
		c-0.7-2.6,0.7-4.3,3.4-5c7.5-1.9,14.8-4.3,22.3-6.1c11.4-2.8,22.9-5.4,34.4-7.7c4.9-1,10-1.1,15.1-1.7c18.9-2.2,38-2.4,56.9-1.3
		c23.3,1.4,46.4,4.9,68.3,13.7c14.9,5.9,28.8,13.6,41.9,23c10.1,7.2,18.8,15.7,27.3,24.5c9.9,10.2,18.5,21.5,25.7,33.7
		c7.8,13.3,15.4,26.9,22.1,40.9c8.6,18,14.6,37.1,20.2,56.2c0.6,2.2,1.2,4.3,1.8,6.7c-0.9,0.3-1.7,1-2.2,0.8
		c-9.1-3.2-18.5-5.9-27.3-10c-12.9-6-25.4-13-38.1-19.5c-27.5-14.1-55-28-82.4-42.1c-5.8-3-11.5-6.3-17.3-9.3
		c-1.3-0.7-2.7-0.9-4.4-0.7C342.2,406.7,369.1,423.5,394.6,442.5z"/>
	<path class="st0" d="M458.5,488.1c-6.5,4.6-11.9,8.2-17,12.2c-9.5,7.5-18.9,15.3-28.2,23c-7,5.8-13.4,12.5-21,17.5
		c-6.7,4.4-14.6,7-21.9,10.6c-18.8,9.3-37.7,18.6-56.4,28c-1.9,1-3.6,2.4-4.8,5c20.6-7.1,41.2-14.1,61.7-21.2
		c0.2,0.4,0.5,0.7,0.7,1.1c-4.8,6.5-9.7,13-14.5,19.6c-10,13.6-18.4,28.2-25.4,43.5c-7,15.5-12,31.7-15.5,48.3
		c-1.2,5.6-1.4,11.5-2.1,18c-6.5,0.6-13.1,0.4-19.4,1.9c-8.7,2-17.3,1.1-26,1.3c-9.2,0.3-18.1-2-27.1-2.8c-14.3-1.3-28.3-4.2-42-8.2
		c-17.3-5.1-34.4-11.1-51.5-17.2c-7.2-2.6-14-6.3-21.3-9.7c7.8-20.5,15.7-40.6,26.3-59.7c8.6-15.4,17.5-30.5,28-44.6
		c10.9-14.6,22.8-28.3,36.4-40.3c21.1-18.6,45.3-32.4,72.5-39.8c10.5-2.9,21.5-4.8,32.6-5.8c11.3-1,22.5-1.4,33.7-0.9
		c11.8,0.4,23.7,1.1,35.2,4.3c5.8,1.6,12,1.5,17.8,2.9C425.5,479.1,441.3,483.5,458.5,488.1z"/>
	<path class="st0" d="M664.8,638.1c0.5,0.8,1,1.6,1.5,2.4c-0.3,0.2-0.6,0.4-0.9,0.6c-0.5-0.8-1.1-1.5-1.6-2.3
		C664.2,638.6,664.5,638.4,664.8,638.1z"/>
</g>
</svg>
